<?xml version="1.0"?>
<svg version="1.1" xmlns="http://www.w3.org/2000/svg" width="90px" height="60px" style=""><path fill="#" d="M1.5380859375,51.044921875q-0.0244140625-0.732421875-0.0244140625-1.46484375q0-2.294921875,0.244140625-4.6142578125q0.29296875-3.076171875,0.390625-6.0546875q0.09765625-3.4912109375,0.29296875-7.2509765625q0.1220703125-2.05078125,0.1220703125-4.052734375q0-1.6357421875-0.0732421875-3.2470703125q0.244140625-0.5615234375,0.64697265625-0.7568359375t1.01318359375-0.1953125q0.29296875,0,0.62255859375,0.048828125t0.57373046875,0.244140625q0.341796875,0.048828125,0.84228515625,0.09765625t0.76904296875,0.29296875q0.09765625,0.146484375,0.50048828125,1.0009765625t0.9521484375,2.0751953125t1.1474609375,2.64892578125t1.1474609375,2.7099609375t0.9521484375,2.25830078125t0.50048828125,1.220703125q2.294921875-4.150390625,4.4921875-8.53271484375t4.8095703125-8.26416015625q0.244140625-0.341796875,0.84228515625-0.50048828125t0.98876953125-0.15869140625q1.0498046875,0,1.52587890625,0.50048828125t0.62255859375,1.28173828125q0.09765625,0.48828125,0.1220703125,1.0498046875q0.0244140625,0.29296875-0.0244140625,0.6103515625q-0.09765625,0.9033203125-0.09765625,1.708984375q0,5.6884765625-0.390625,11.29150390625t-0.7080078125,11.31591796875q-0.048828125,1.171875-0.048828125,2.44140625t0.048828125,2.63671875q0.0244140625,0.48828125,0.0244140625,0.9521484375q0,2.1484375-0.3662109375,4.00390625q-0.341796875,0.5615234375-1.123046875,0.7080078125t-1.318359375,0.146484375q-1.1474609375,0-2.197265625-0.537109375l-0.2685546875-0.3173828125l-0.09765625-0.390625t-0.048828125-0.390625q0-3.5400390625,0.25634765625-7.12890625t0.57373046875-7.16552734375t0.67138671875-7.14111328125t0.59814453125-7.12890625q-1.4404296875,2.392578125-2.79541015625,4.87060546875t-2.55126953125,5.04150390625q-0.439453125,1.0009765625-0.84228515625,2.1484375t-0.96435546875,2.05078125q-0.29296875,0.439453125-0.98876953125,0.537109375t-1.20849609375,0.09765625q-0.48828125,0-1.01318359375-0.1708984375t-0.72021484375-0.732421875q-0.9033203125-2.7587890625-1.9287109375-5.3955078125t-2.0751953125-5.3466796875q0,1.806640625,0.0732421875,4.67529296875t0.0732421875,5.94482421875t-0.09765625,5.8837890625t-0.4638671875,4.443359375q-0.09765625,0.6103515625-0.79345703125,0.7568359375t-1.20849609375,0.146484375q-0.390625,0-0.74462890625-0.048828125t-0.69580078125-0.1953125z M30.582763671875,42.451171875l0-3.857421875q0-4.00390625,0.13427734375-7.94677734375t0.23193359375-7.94677734375q0-0.7568359375-0.048828125-1.6845703125q-0.0244140625-0.2685546875-0.0244140625-0.5126953125q0-0.6103515625,0.09765625-1.1962890625q0.1220703125-0.78125,0.59814453125-1.3427734375t1.57470703125-0.5615234375q0.9033203125,0,1.37939453125,0.1953125t0.67138671875,0.57373046875t0.2197265625,0.9521484375t0.0244140625,1.33056640625q0,4.052734375-0.09765625,8.1298828125q-0.0732421875,2.7099609375-0.0732421875,5.419921875q0,1.3671875,0.0244140625,2.734375q0.048828125,4.052734375,0.37841796875,8.10546875t1.11083984375,8.0078125q2.44140625-0.09765625,4.8828125-0.244140625t4.8828125-0.146484375q0.244140625,0,0.69580078125,0.048828125t0.9033203125,0.1708984375t0.76904296875,0.3173828125t0.3173828125,0.5615234375q0,0.244140625-0.2197265625,0.4150390625t-0.4150390625,0.2685546875l-0.048828125,0q-0.390625,0.1953125-1.55029296875,0.37841796875t-2.63671875,0.28076171875t-3.1005859375,0.1708984375t-3.0517578125,0.1220703125t-2.47802734375,0.0732421875t-1.2939453125,0.0244140625l-0.2197265625,0q-0.5859375,0-1.318359375-0.1953125q-0.87890625-0.244140625-1.0986328125-0.9521484375q-0.439453125-1.806640625-0.69580078125-3.74755859375t-0.390625-3.94287109375t-0.13427734375-4.00390625z M52.74267578125,18.0615234375q0-0.48828125,0.7568359375-0.69580078125t1.2451171875-0.20751953125q0.5615234375,0,1.23291015625,0.146484375t0.81787109375,0.7568359375q0.7080078125,2.8564453125,1.08642578125,5.82275390625t0.57373046875,5.96923828125t0.3173828125,5.96923828125t0.2685546875,5.87158203125q0.6591796875-2.9052734375,1.35498046875-5.77392578125t1.81884765625-5.72509765625l0-1.953125q0-1.2451171875,0.86669921875-1.79443359375t2.33154296875-0.54931640625q0.146484375,0,0.67138671875,0.0732421875t0.52490234375,0.48828125q-0.09765625,0.29296875-0.23193359375,0.5615234375t-0.13427734375,0.5859375q0,3.7109375,0.87890625,7.60498046875t1.7333984375,7.58056640625q0.48828125-3.1494140625,1.123046875-6.2744140625t1.318359375-6.2255859375q0.9033203125-4.150390625,1.37939453125-6.89697265625t0.9033203125-4.345703125t0.927734375-2.2705078125t1.40380859375-0.67138671875q0.5615234375-0.048828125,1.0498046875,0.1953125t0.390625,0.8056640625q-1.7578125,8.49609375-3.28369140625,17.041015625t-3.11279296875,17.08984375q0,0.48828125,0.1708984375,1.1474609375t0.1708984375,1.171875q0,0.29296875-0.2685546875,0.48828125t-0.64697265625,0.32958984375t-0.830078125,0.18310546875t-0.79345703125,0.048828125q-0.7568359375,0-1.5869140625-0.23193359375t-1.07421875-1.33056640625q-0.8544921875-3.80859375-1.57470703125-7.65380859375t-1.33056640625-7.75146484375q-0.1953125,0.9033203125-0.3662109375,1.8310546875t-0.3173828125,1.8798828125q-0.7080078125,4.150390625-1.5625,8.30078125t-0.8544921875,8.3984375q0,1.0498046875-0.439453125,1.35498046875t-1.4892578125,0.30517578125q-0.8056640625,0-1.3671875-0.2685546875q-0.439453125-0.244140625-0.830078125-0.439453125q-0.341796875-0.1953125-0.62255859375-0.45166015625t-0.28076171875-0.50048828125q-0.390625-5.2978515625-0.54931640625-10.5224609375t-0.35400390625-10.5224609375q-0.1953125-4.7607421875-0.57373046875-9.50927734375t-0.84228515625-9.43603515625z"/><path fill="#" d=""/></svg>
